<svg width="104" height="35" viewBox="0 0 104 35" fill="none" xmlns="http://www.w3.org/2000/svg">
<path d="M33.6406 5.25H41.1719C42.8802 5.25 44.3229 5.51042 45.5 6.03125C46.6875 6.55208 47.5885 7.32292 48.2031 8.34375C48.8281 9.35417 49.1406 10.599 49.1406 12.0781C49.1406 13.1198 48.9271 14.0729 48.5 14.9375C48.0833 15.7917 47.4792 16.5208 46.6875 17.125C45.9062 17.7188 44.9688 18.1615 43.875 18.4531L43.0312 18.7812H35.9531L35.9219 16.3281H41.2656C42.349 16.3281 43.25 16.1406 43.9688 15.7656C44.6875 15.3802 45.2292 14.8646 45.5938 14.2188C45.9583 13.5729 46.1406 12.8594 46.1406 12.0781C46.1406 11.2031 45.9688 10.4375 45.625 9.78125C45.2812 9.125 44.7396 8.61979 44 8.26562C43.2708 7.90104 42.3281 7.71875 41.1719 7.71875H36.6562V28H33.6406V5.25ZM46.9375 28L41.4062 17.6875L44.5469 17.6719L50.1562 27.8125V28H46.9375ZM63.2906 25.1094V16.4062C63.2906 15.7396 63.1552 15.1615 62.8844 14.6719C62.624 14.1719 62.2281 13.7865 61.6969 13.5156C61.1656 13.2448 60.5094 13.1094 59.7281 13.1094C58.999 13.1094 58.3583 13.2344 57.8062 13.4844C57.2646 13.7344 56.8375 14.0625 56.525 14.4688C56.2229 14.875 56.0719 15.3125 56.0719 15.7812H53.1812C53.1812 15.1771 53.3375 14.5781 53.65 13.9844C53.9625 13.3906 54.4104 12.8542 54.9937 12.375C55.5875 11.8854 56.2958 11.5 57.1187 11.2188C57.9521 10.9271 58.8792 10.7812 59.9 10.7812C61.1292 10.7812 62.2125 10.9896 63.15 11.4062C64.0979 11.8229 64.8375 12.4531 65.3687 13.2969C65.9104 14.1302 66.1812 15.1771 66.1812 16.4375V24.3125C66.1812 24.875 66.2281 25.474 66.3219 26.1094C66.426 26.7448 66.5771 27.2917 66.775 27.75V28H63.7594C63.6135 27.6667 63.499 27.224 63.4156 26.6719C63.3323 26.1094 63.2906 25.5885 63.2906 25.1094ZM63.7906 17.75L63.8219 19.7812H60.9C60.0771 19.7812 59.3427 19.849 58.6969 19.9844C58.051 20.1094 57.5094 20.3021 57.0719 20.5625C56.6344 20.8229 56.301 21.151 56.0719 21.5469C55.8427 21.9323 55.7281 22.3854 55.7281 22.9062C55.7281 23.4375 55.8479 23.9219 56.0875 24.3594C56.3271 24.7969 56.6865 25.1458 57.1656 25.4062C57.6552 25.6562 58.2542 25.7812 58.9625 25.7812C59.8479 25.7812 60.6292 25.5938 61.3062 25.2188C61.9833 24.8438 62.5198 24.3854 62.9156 23.8438C63.3219 23.3021 63.5406 22.776 63.5719 22.2656L64.8062 23.6562C64.7333 24.0938 64.5354 24.5781 64.2125 25.1094C63.8896 25.6406 63.4573 26.151 62.9156 26.6406C62.3844 27.1198 61.749 27.5208 61.0094 27.8438C60.2802 28.1562 59.4573 28.3125 58.5406 28.3125C57.3948 28.3125 56.3896 28.0885 55.525 27.6406C54.6708 27.1927 54.0042 26.5938 53.525 25.8438C53.0562 25.0833 52.8219 24.2344 52.8219 23.2969C52.8219 22.3906 52.999 21.5938 53.3531 20.9062C53.7073 20.2083 54.2177 19.6302 54.8844 19.1719C55.551 18.7031 56.3531 18.349 57.2906 18.1094C58.2281 17.8698 59.275 17.75 60.4312 17.75H63.7906ZM78.2062 11.0938V13.3125H69.0656V11.0938H78.2062ZM72.1594 6.98438H75.05V23.8125C75.05 24.3854 75.1385 24.8177 75.3156 25.1094C75.4927 25.401 75.7219 25.5938 76.0031 25.6875C76.2844 25.7812 76.5865 25.8281 76.9094 25.8281C77.149 25.8281 77.399 25.8073 77.6594 25.7656C77.9302 25.7135 78.1333 25.6719 78.2687 25.6406L78.2844 28C78.0552 28.0729 77.7531 28.1406 77.3781 28.2031C77.0135 28.276 76.5708 28.3125 76.05 28.3125C75.3417 28.3125 74.6906 28.1719 74.0969 27.8906C73.5031 27.6094 73.0292 27.1406 72.675 26.4844C72.3312 25.8177 72.1594 24.9219 72.1594 23.7969V6.98438ZM85.1375 11.0938V28H82.2313V11.0938H85.1375ZM82.0125 6.60938C82.0125 6.14062 82.1531 5.74479 82.4344 5.42188C82.726 5.09896 83.1531 4.9375 83.7156 4.9375C84.2677 4.9375 84.6896 5.09896 84.9813 5.42188C85.2833 5.74479 85.4344 6.14062 85.4344 6.60938C85.4344 7.05729 85.2833 7.44271 84.9813 7.76562C84.6896 8.07812 84.2677 8.23438 83.7156 8.23438C83.1531 8.23438 82.726 8.07812 82.4344 7.76562C82.1531 7.44271 82.0125 7.05729 82.0125 6.60938ZM94.9281 26.25L99.6312 11.0938H102.725L95.9437 30.6094C95.7875 31.026 95.5792 31.474 95.3187 31.9531C95.0687 32.4427 94.7458 32.9062 94.35 33.3438C93.9542 33.7812 93.475 34.1354 92.9125 34.4062C92.3604 34.6875 91.699 34.8281 90.9281 34.8281C90.699 34.8281 90.4073 34.7969 90.0531 34.7344C89.699 34.6719 89.449 34.6198 89.3031 34.5781L89.2875 32.2344C89.3708 32.2448 89.501 32.2552 89.6781 32.2656C89.8656 32.2865 89.9958 32.2969 90.0687 32.2969C90.725 32.2969 91.2823 32.2083 91.7406 32.0312C92.199 31.8646 92.5844 31.5781 92.8969 31.1719C93.2198 30.776 93.4958 30.2292 93.725 29.5312L94.9281 26.25ZM91.475 11.0938L95.8656 24.2188L96.6156 27.2656L94.5375 28.3281L88.3187 11.0938H91.475Z" fill="#C97008"/>
<path fill-rule="evenodd" clip-rule="evenodd" d="M18.4853 1.8818C19.6047 3.34625 19.944 5.84173 19.9905 6.22607H21.4569C21.4569 6.22607 21.9983 6.19463 22.3132 6.4905C22.6281 6.78636 22.7162 7.40967 22.7162 7.40967L24.5545 26.5497C24.5545 26.5497 24.6804 27.3996 24.5545 27.853C24.5274 27.9769 24.4657 28.0906 24.3766 28.1809C24.2874 28.2711 24.1745 28.3343 24.0509 28.3629L18.9638 30L1.33486 28.7659C1.33486 28.7659 0.774562 28.7407 0.440772 28.4385C0.106981 28.1363 0 27.5571 0 27.5571L1.41041 7.35935C1.41041 7.35935 1.39787 6.82716 1.64961 6.53765C1.90135 6.24813 2.41768 6.20083 2.41768 6.20083H4.07983V7.35935H2.56878L1.23407 27.683L17.4526 28.9421L16.5712 7.25857H14.4557V6.22607H18.9838C18.9477 5.89313 18.7072 3.98291 17.8304 2.75065C16.8671 1.39691 16.4295 1.33087 15.2616 1.21437C14.0937 1.09787 13.2091 2.38543 13.2091 2.38543L12.4536 1.21437C12.4536 1.21437 13.7706 -0.0952554 15.2616 0.00553269C16.7525 0.106318 17.2701 0.292025 18.4853 1.8818ZM18.774 28.5235L21.4318 26.6252L23.585 27.4941C23.585 27.4941 23.7455 27.5444 23.7992 27.4941C23.8528 27.4438 23.7111 27.258 23.7111 27.258L21.5831 26.0082L20.0466 9.70147C20.0466 9.70147 19.9073 9.1868 19.816 9.20886C19.7248 9.23092 19.6814 9.78971 19.6814 9.78971L20.8525 26.0082L18.7103 28.252C18.7103 28.252 18.593 28.4512 18.6087 28.514C18.6244 28.5769 18.774 28.5235 18.774 28.5235Z" fill="#C97008"/>
<path d="M12.6459 8.62187C12.5448 8.78777 12.4913 8.97831 12.4914 9.17259C12.4914 9.35183 12.537 9.52812 12.6238 9.68492C12.7106 9.84172 12.8359 9.97388 12.9878 10.069C13.1397 10.1641 13.3133 10.2191 13.4923 10.2287C13.6713 10.2383 13.8497 10.2023 14.011 10.124C14.1722 10.0458 14.3109 9.92782 14.4141 9.78125C14.5173 9.63467 14.5815 9.46429 14.6007 9.28609C14.62 9.10789 14.5936 8.92772 14.5242 8.7625C14.4547 8.59727 14.3444 8.45241 14.2035 8.34152H14.2291V7.32156C14.2291 7.32156 14.3926 4.66453 13.3853 3.09062C13.3215 2.99086 13.2589 2.89213 13.1971 2.79467C12.2845 1.35464 11.5479 0.192359 9.46928 0.0685238C7.25 -0.063693 5.97876 1.50402 4.99657 3.27965C4.1247 4.85568 4.39578 7.62241 4.46771 8.22396C4.25303 8.32998 4.08066 8.5057 3.97881 8.72239C3.87696 8.93909 3.85164 9.18392 3.90699 9.41687C3.96234 9.64982 4.09509 9.8571 4.28354 10.0048C4.47198 10.1525 4.70496 10.2319 4.94439 10.23C5.18382 10.2282 5.41553 10.1451 5.60162 9.99444C5.78772 9.84378 5.91719 9.63444 5.96887 9.40065C6.02055 9.16686 5.99138 8.92245 5.88613 8.70739C5.78088 8.49232 5.60577 8.31933 5.38945 8.2167V6.86824C5.38945 6.86824 5.43478 4.46598 5.81254 3.82363C5.82346 3.80506 5.83504 3.78518 5.84728 3.76409C5.85648 3.74824 5.86605 3.7317 5.87599 3.71451L5.87617 3.71421C6.31088 2.96299 7.4612 0.975153 9.46928 0.975153C11.5847 0.975153 12.9069 4.45057 13.058 5.20609C13.1896 5.86445 13.0919 7.75659 13.0645 8.23212C12.8918 8.32112 12.747 8.45597 12.6459 8.62187Z" fill="#C97008"/>
<path d="M5.71055 7.32158V6.20083H10.1244C10.1297 5.68228 10.1886 5.16558 10.3004 4.65901C10.4445 4.09557 10.6427 3.54739 10.8923 3.0221L11.2826 2.41768L12.0003 3.5635C11.7227 3.97042 11.5063 4.41589 11.3581 4.88567C11.2491 5.31524 11.2048 5.75852 11.2265 6.20083H12.7369V7.32158H5.71055Z" fill="#C97008"/>
</svg>
